<?xml version="1.0" encoding="UTF-8"?>
<svg id="Livello_2" data-name="Livello 2" xmlns="http://www.w3.org/2000/svg" viewBox="0 0 258.45 25.49">
  <defs>
    <style>
      .cls-1 {
        fill: #fff;
      }
    </style>
  </defs>
  <g id="Livello_1-2" data-name="Livello 1">
    <g>
      <path class="cls-1" d="M3.72,10.98v-6.27h13.34V1.09H0v13.88c4.73-1.48,9.95-2.82,15.59-3.99H3.72Z"/>
      <path class="cls-1" d="M0,24.32h17.16v-3.65H3.72v-4.4c-1.27.39-2.51.78-3.72,1.18v6.86Z"/>
      <path class="cls-1" d="M24.99,1.12h-3.69v8.75c1.21-.22,2.44-.43,3.69-.63V1.12Z"/>
      <path class="cls-1" d="M37.36,15.35c.06,4.45-2.64,6.84-6.35,6.72-3.45-.06-5.94-2.38-5.99-6.56l-.04-3.43c-1.24.24-2.47.48-3.68.73l.03,2.75c.08,6.57,4.54,9.9,9.72,9.93,5.61.09,10.08-3.35,9.99-10.18l-.07-5.71c-1.24.15-2.46.32-3.68.48l.07,5.28Z"/>
      <path class="cls-1" d="M40.87,1.7l-3.68.05.08,6.41c1.21-.15,2.44-.3,3.68-.44l-.08-6.02Z"/>
      <path class="cls-1" d="M51.65,24.76l3.75-.05-.21-16.52c-1.26.09-2.51.2-3.75.3l.21,16.27Z"/>
      <path class="cls-1" d="M55.15,4.84l7.6-.1-.04-3.35-18.98.24.04,3.35,7.63-.1.02,1.81c1.24-.1,2.49-.19,3.75-.28l-.02-1.58Z"/>
      <path class="cls-1" d="M66.15,24.58l17.16-.22-.05-3.65-13.44.17-.08-6.24,12.81-.16-.04-3.45-12.81.16-.05-3.74c-1.24.03-2.48.08-3.72.13l.22,17Z"/>
      <path class="cls-1" d="M69.62,4.92l13.34-.17-.05-3.62-17.06.22.06,4.49c1.23-.05,2.47-.09,3.72-.12v-.8Z"/>
      <path class="cls-1" d="M91.31,11.05l-.05-3.63c-1.24-.02-2.48-.05-3.72-.06l.22,16.95,3.72-.05-.13-10.59,10.49,10.45,4.65-.06v-.23s-11.74-11.63-11.74-11.63l4.27-4.56c-1.47-.05-2.95-.1-4.44-.14l-3.27,3.55Z"/>
      <path class="cls-1" d="M91.18,1.03l-3.72.05.06,4.52c1.24.01,2.48.03,3.72.05l-.06-4.62Z"/>
      <path class="cls-1" d="M105.25.98v-.13s-4.61.06-4.61.06l-4.45,4.83c1.5.04,3,.08,4.48.13l4.58-4.88Z"/>
      <path class="cls-1" d="M128.38.56l-3.72.05.08,6.63c1.25.1,2.49.22,3.72.33l-.09-7.01Z"/>
      <path class="cls-1" d="M108.93,24.04l3.75-.05-.2-15.65c-1.24-.08-2.5-.16-3.75-.23l.2,15.93Z"/>
      <path class="cls-1" d="M111.49.77l-2.85.04.07,5.38c2.55.12,5.07.26,7.56.42l-4.78-5.84Z"/>
      <path class="cls-1" d="M124.87,17.13l-6.86-8.38c-1.62-.13-3.25-.25-4.9-.36l12.73,15.44,2.82-.04-.18-14.05c-1.23-.13-2.47-.26-3.72-.39l.1,7.78Z"/>
      <path class="cls-1" d="M134.18,23.72l17.16-.22-.05-3.65-13.44.17-.08-6.24,12.81-.16c-5.89-1.42-10.68-2.32-16.57-3.23l.17,13.33Z"/>
      <path class="cls-1" d="M137.65,4.06l13.34-.17-.05-3.62-17.06.22.1,7.65c1.26.14,2.5.28,3.72.43l-.06-4.51Z"/>
      <path class="cls-1" d="M162.66,22.23c0,.99.55,1.49,1.64,1.49s2.5-.58,4.22-1.74c1.72-1.16,3.39-2.73,5.01-4.71.4-.53.71-.79.94-.79s.35.1.35.3-.68,1.06-2.04,2.58c-3.31,3.64-6.07,5.46-8.28,5.46-1.09,0-2.02-.26-2.78-.77-.76-.51-1.14-1.31-1.14-2.38s.28-2.32.84-3.75c.96-2.25,2.5-5.08,4.61-8.48,3.87-6.28,6.61-9.43,8.23-9.43.33,0,.67.12,1.02.37.35.25.54.52.57.82-.76,1.02-2.22,2.99-4.39,5.9s-3.66,5-4.49,6.28c-.83,1.27-1.45,2.22-1.86,2.85-.41.63-.72,1.12-.92,1.46-.2.35-.43.8-.7,1.36-.56,1.12-.84,2.18-.84,3.17"/>
      <path class="cls-1" d="M174.46,22.08c0,1.19.41,1.79,1.24,1.79,1.92,0,4.53-2.1,7.84-6.3l5.26-7.24c-.26-.46-.7-.69-1.29-.69-2.02,0-4.7,1.56-8.04,4.69-3.34,3.13-5.01,5.71-5.01,7.76M189.3,9.87l.69-.15c.36,0,.71.15,1.04.45.33.3.49.53.49.69s-1.02,1.76-3.07,4.79c-2.05,3.03-3.08,5.13-3.08,6.33,0,.1.02.2.05.3.17.76.53,1.14,1.09,1.14,1.72,0,4.86-2.84,9.43-8.53.1-.13.21-.2.35-.2s.2.12.2.37-.15.57-.45.97c-4.23,5.66-7.46,8.48-9.67,8.48-.3,0-.58-.05-.84-.15-1.46-.56-2.18-1.65-2.18-3.28,0-.56.07-1.12.2-1.69l-3.08,2.98c-1.95,1.72-3.37,2.58-4.24,2.58s-1.71-.28-2.5-.84c-.89-.66-1.34-1.54-1.34-2.63,0-2.41,1.69-5.3,5.06-8.66,3.37-3.36,6.46-5.03,9.28-5.03,1.09,0,1.82.38,2.18,1.14.1.26.18.49.25.67.07.18.11.27.15.27"/>
      <path class="cls-1" d="M206.66,5.21c.99,0,1.83.33,2.53.99.7.66,1.04,1.59,1.04,2.78,0,2.61-2.17,5.89-6.5,9.82-3.67,3.31-6.63,5.32-8.88,6.05-.36,0-.84-.2-1.44-.59-.59-.4-.89-.76-.89-1.09,0-.73.79-3.19,2.38-7.39,1.59-4.2,2.68-6.55,3.27-7.04.13-.13.35-.2.64-.2s.61.16.94.47c.33.31.51.69.55,1.12,0,.03-.82,1.95-2.45,5.75-1.64,3.81-2.41,6.07-2.31,6.8,1.42-.43,3.96-2.17,7.62-5.21,3.65-3.04,5.48-5.77,5.48-8.19,0-1.45-.73-2.51-2.18-3.17-.23-.1-.35-.25-.35-.45,0-.3.18-.45.55-.45"/>
      <path class="cls-1" d="M217.87,11.61c-1.12,0-2.72,1.32-4.79,3.97-2.07,2.65-3.1,4.6-3.1,5.85s.4,1.89,1.19,1.89c1.42,0,3.23-1.29,5.41-3.87,2.18-2.58,3.28-4.43,3.28-5.56-.53-.3-1.19-1.06-1.98-2.28M221.1,14.19c0,1.16-1.11,3.09-3.32,5.8-2.61,3.21-4.85,4.81-6.7,4.81h-.79c-.86,0-1.54-.45-2.03-1.34-.4-.63-.59-1.32-.59-2.08,0-1.98,1.45-4.77,4.34-8.36,2.89-3.59,5.23-5.38,7.02-5.38,1.69,0,2.53.89,2.53,2.68,0,.46-.08,1.06-.25,1.79.03.1.35.15.94.15s1.5-.31,2.73-.94c-.03.56-1.34,1.37-3.92,2.43.03.13.05.28.05.45"/>
      <path class="cls-1" d="M232.21,24.96c-2.48,0-3.72-1.37-3.72-4.12,0-1.39.36-2.91,1.09-4.56.73-1.66,1.52-3.04,2.38-4.17-.17.03-.38.05-.64.05-.79,0-1.46-.56-1.98-1.69l-3.67,4.76c-2.05,2.55-3.24,3.82-3.57,3.82-.17,0-.25-.07-.25-.2,0-.33.28-.81.84-1.44,2.88-3.34,4.91-6.17,6.1-8.48.76-2.88,1.72-4.32,2.88-4.32.76,0,1.14.33,1.14.99s-.41,1.51-1.24,2.53l-1.19,1.59c0,.69.51,1.04,1.54,1.04.59,0,1.26-.22,1.98-.65l1.29-.79c.07-.03.23-.05.5-.05s.55.17.84.5c.3.33.4.63.3.89l-3.42,4.32c-2.12,2.71-3.18,4.85-3.18,6.43s.73,2.36,2.18,2.36,3.39-.81,5.61-2.43c1.32-.96,2.53-2.03,3.62-3.22,1.02-1.19,1.59-1.79,1.69-1.79.23,0,.35.12.35.37s-.15.54-.45.87l-1.59,1.79c-.89.93-1.89,1.82-2.98,2.68-2.61,1.95-4.76,2.93-6.45,2.93"/>
      <path class="cls-1" d="M251.36,11.61c-1.12,0-2.72,1.32-4.79,3.97-2.07,2.65-3.1,4.6-3.1,5.85s.4,1.89,1.19,1.89c1.42,0,3.23-1.29,5.41-3.87,2.18-2.58,3.28-4.43,3.28-5.56-.53-.3-1.19-1.06-1.98-2.28M254.59,14.19c0,1.16-1.11,3.09-3.32,5.8-2.61,3.21-4.85,4.81-6.7,4.81h-.79c-.86,0-1.54-.45-2.03-1.34-.4-.63-.6-1.32-.6-2.08,0-1.98,1.45-4.77,4.34-8.36,2.89-3.59,5.23-5.38,7.02-5.38,1.69,0,2.53.89,2.53,2.68,0,.46-.08,1.06-.25,1.79.03.1.35.15.94.15s1.5-.31,2.73-.94c-.03.56-1.34,1.37-3.92,2.43.03.13.05.28.05.45"/>
      <path class="cls-1" d="M3.72,10.98v-6.27h13.34V1.09H0v13.88c4.73-1.48,9.95-2.82,15.59-3.99H3.72Z"/>
      <path class="cls-1" d="M0,24.32h17.16v-3.65H3.72v-4.4c-1.27.39-2.51.78-3.72,1.18v6.86Z"/>
      <path class="cls-1" d="M24.99,1.12h-3.69v8.75c1.21-.22,2.44-.43,3.69-.63V1.12Z"/>
      <path class="cls-1" d="M37.36,15.35c.06,4.45-2.64,6.84-6.35,6.72-3.45-.06-5.94-2.38-5.99-6.56l-.04-3.43c-1.24.24-2.47.48-3.68.73l.03,2.75c.08,6.57,4.54,9.9,9.72,9.93,5.61.09,10.08-3.35,9.99-10.18l-.07-5.71c-1.24.15-2.46.32-3.68.48l.07,5.28Z"/>
      <path class="cls-1" d="M40.87,1.7l-3.68.05.08,6.41c1.21-.15,2.44-.3,3.68-.44l-.08-6.02Z"/>
      <path class="cls-1" d="M51.65,24.76l3.75-.05-.21-16.52c-1.26.09-2.51.2-3.75.3l.21,16.27Z"/>
      <path class="cls-1" d="M55.15,4.84l7.6-.1-.04-3.35-18.98.24.04,3.35,7.63-.1.02,1.81c1.24-.1,2.49-.19,3.75-.28l-.02-1.58Z"/>
      <path class="cls-1" d="M66.15,24.58l17.16-.22-.05-3.65-13.44.17-.08-6.24,12.81-.16-.04-3.45-12.81.16-.05-3.74c-1.24.03-2.48.08-3.72.13l.22,17Z"/>
      <path class="cls-1" d="M69.62,4.92l13.34-.17-.05-3.62-17.06.22.06,4.49c1.23-.05,2.47-.09,3.72-.12v-.8Z"/>
      <path class="cls-1" d="M91.31,11.05l-.05-3.63c-1.24-.02-2.48-.05-3.72-.06l.22,16.95,3.72-.05-.13-10.59,10.49,10.45,4.65-.06v-.23s-11.74-11.63-11.74-11.63l4.27-4.56c-1.47-.05-2.95-.1-4.44-.14l-3.27,3.55Z"/>
      <path class="cls-1" d="M91.18,1.03l-3.72.05.06,4.52c1.24.01,2.48.03,3.72.05l-.06-4.62Z"/>
      <path class="cls-1" d="M105.25.98v-.13s-4.61.06-4.61.06l-4.45,4.83c1.5.04,3,.08,4.48.13l4.58-4.88Z"/>
      <path class="cls-1" d="M128.38.56l-3.72.05.08,6.63c1.25.1,2.49.22,3.72.33l-.09-7.01Z"/>
      <path class="cls-1" d="M108.93,24.04l3.75-.05-.2-15.65c-1.24-.08-2.5-.16-3.75-.23l.2,15.93Z"/>
      <path class="cls-1" d="M111.49.77l-2.85.04.07,5.38c2.55.12,5.07.26,7.56.42l-4.78-5.84Z"/>
      <path class="cls-1" d="M124.87,17.13l-6.86-8.38c-1.62-.13-3.25-.25-4.9-.36l12.73,15.44,2.82-.04-.18-14.05c-1.23-.13-2.47-.26-3.72-.39l.1,7.78Z"/>
      <path class="cls-1" d="M134.18,23.72l17.16-.22-.05-3.65-13.44.17-.08-6.24,12.81-.16c-5.89-1.42-10.68-2.32-16.57-3.23l.17,13.33Z"/>
      <path class="cls-1" d="M137.65,4.06l13.34-.17-.05-3.62-17.06.22.1,7.65c1.26.14,2.5.28,3.72.43l-.06-4.51Z"/>
      <path class="cls-1" d="M162.66,22.23c0,.99.55,1.49,1.64,1.49s2.5-.58,4.22-1.74c1.72-1.16,3.39-2.73,5.01-4.71.4-.53.71-.79.94-.79s.35.1.35.3-.68,1.06-2.04,2.58c-3.31,3.64-6.07,5.46-8.28,5.46-1.09,0-2.02-.26-2.78-.77-.76-.51-1.14-1.31-1.14-2.38s.28-2.32.84-3.75c.96-2.25,2.5-5.08,4.61-8.48,3.87-6.28,6.61-9.43,8.23-9.43.33,0,.67.12,1.02.37.35.25.54.52.57.82-.76,1.02-2.22,2.99-4.39,5.9s-3.66,5-4.49,6.28c-.83,1.27-1.45,2.22-1.86,2.85-.41.63-.72,1.12-.92,1.46-.2.35-.43.8-.7,1.36-.56,1.12-.84,2.18-.84,3.17"/>
      <path class="cls-1" d="M174.46,22.08c0,1.19.41,1.79,1.24,1.79,1.92,0,4.53-2.1,7.84-6.3l5.26-7.24c-.26-.46-.7-.69-1.29-.69-2.02,0-4.7,1.56-8.04,4.69-3.34,3.13-5.01,5.71-5.01,7.76M189.3,9.87l.69-.15c.36,0,.71.15,1.04.45.33.3.49.53.49.69s-1.02,1.76-3.07,4.79c-2.05,3.03-3.08,5.13-3.08,6.33,0,.1.02.2.05.3.17.76.53,1.14,1.09,1.14,1.72,0,4.86-2.84,9.43-8.53.1-.13.21-.2.35-.2s.2.12.2.37-.15.57-.45.97c-4.23,5.66-7.46,8.48-9.67,8.48-.3,0-.58-.05-.84-.15-1.46-.56-2.18-1.65-2.18-3.28,0-.56.07-1.12.2-1.69l-3.08,2.98c-1.95,1.72-3.37,2.58-4.24,2.58s-1.71-.28-2.5-.84c-.89-.66-1.34-1.54-1.34-2.63,0-2.41,1.69-5.3,5.06-8.66,3.37-3.36,6.46-5.03,9.28-5.03,1.09,0,1.82.38,2.18,1.14.1.26.18.49.25.67.07.18.11.27.15.27"/>
      <path class="cls-1" d="M206.66,5.21c.99,0,1.83.33,2.53.99.7.66,1.04,1.59,1.04,2.78,0,2.61-2.17,5.89-6.5,9.82-3.67,3.31-6.63,5.32-8.88,6.05-.36,0-.84-.2-1.44-.59-.59-.4-.89-.76-.89-1.09,0-.73.79-3.19,2.38-7.39,1.59-4.2,2.68-6.55,3.27-7.04.13-.13.35-.2.64-.2s.61.16.94.47c.33.31.51.69.55,1.12,0,.03-.82,1.95-2.45,5.75-1.64,3.81-2.41,6.07-2.31,6.8,1.42-.43,3.96-2.17,7.62-5.21,3.65-3.04,5.48-5.77,5.48-8.19,0-1.45-.73-2.51-2.18-3.17-.23-.1-.35-.25-.35-.45,0-.3.18-.45.55-.45"/>
      <path class="cls-1" d="M217.87,11.61c-1.12,0-2.72,1.32-4.79,3.97-2.07,2.65-3.1,4.6-3.1,5.85s.4,1.89,1.19,1.89c1.42,0,3.23-1.29,5.41-3.87,2.18-2.58,3.28-4.43,3.28-5.56-.53-.3-1.19-1.06-1.98-2.28M221.1,14.19c0,1.16-1.11,3.09-3.32,5.8-2.61,3.21-4.85,4.81-6.7,4.81h-.79c-.86,0-1.54-.45-2.03-1.34-.4-.63-.59-1.32-.59-2.08,0-1.98,1.45-4.77,4.34-8.36,2.89-3.59,5.23-5.38,7.02-5.38,1.69,0,2.53.89,2.53,2.68,0,.46-.08,1.06-.25,1.79.03.1.35.15.94.15s1.5-.31,2.73-.94c-.03.56-1.34,1.37-3.92,2.43.03.13.05.28.05.45"/>
      <path class="cls-1" d="M232.21,24.96c-2.48,0-3.72-1.37-3.72-4.12,0-1.39.36-2.91,1.09-4.56.73-1.66,1.52-3.04,2.38-4.17-.17.03-.38.05-.64.05-.79,0-1.46-.56-1.98-1.69l-3.67,4.76c-2.05,2.55-3.24,3.82-3.57,3.82-.17,0-.25-.07-.25-.2,0-.33.28-.81.84-1.44,2.88-3.34,4.91-6.17,6.1-8.48.76-2.88,1.72-4.32,2.88-4.32.76,0,1.14.33,1.14.99s-.41,1.51-1.24,2.53l-1.19,1.59c0,.69.51,1.04,1.54,1.04.59,0,1.26-.22,1.98-.65l1.29-.79c.07-.03.23-.05.5-.05s.55.17.84.5c.3.33.4.63.3.89l-3.42,4.32c-2.12,2.71-3.18,4.85-3.18,6.43s.73,2.36,2.18,2.36,3.39-.81,5.61-2.43c1.32-.96,2.53-2.03,3.62-3.22,1.02-1.19,1.59-1.79,1.69-1.79.23,0,.35.12.35.37s-.15.54-.45.87l-1.59,1.79c-.89.93-1.89,1.82-2.98,2.68-2.61,1.95-4.76,2.93-6.45,2.93"/>
      <path class="cls-1" d="M251.36,11.61c-1.12,0-2.72,1.32-4.79,3.97-2.07,2.65-3.1,4.6-3.1,5.85s.4,1.89,1.19,1.89c1.42,0,3.23-1.29,5.41-3.87,2.18-2.58,3.28-4.43,3.28-5.56-.53-.3-1.19-1.06-1.98-2.28M254.59,14.19c0,1.16-1.11,3.09-3.32,5.8-2.61,3.21-4.85,4.81-6.7,4.81h-.79c-.86,0-1.54-.45-2.03-1.34-.4-.63-.6-1.32-.6-2.08,0-1.98,1.45-4.77,4.34-8.36,2.89-3.59,5.23-5.38,7.02-5.38,1.69,0,2.53.89,2.53,2.68,0,.46-.08,1.06-.25,1.79.03.1.35.15.94.15s1.5-.31,2.73-.94c-.03.56-1.34,1.37-3.92,2.43.03.13.05.28.05.45"/>
    </g>
  </g>
</svg>